<?xml version="1.0" encoding="UTF-8" standalone="no"?>
<svg width="80px" height="80px" viewBox="0 0 80 80" version="1.1" xmlns="http://www.w3.org/2000/svg" xmlns:xlink="http://www.w3.org/1999/xlink" xmlns:daslicht="http://www.marcwensauer.de/daslicht/ns">
    <title>Bandcamp</title>
    <desc>Created by Marc Wensauer</desc>
    <defs></defs>
    <g  stroke="none" stroke-width="1" fill="none" fill-rule="evenodd" daslicht:type="MSPage">
        <g daslicht:type="MSLayerGroup" fill="#000000">
            <path d="M43.3898305,30.2933999 L34.3432232,49.9191711 L11.0734463,49.9191711 L20.1248279,30.2824859 L43.3948614,30.2824859 L43.3898305,30.2933999 L43.3898305,49.3381675 L45.5873506,49.3381675 L45.5873506,47.6130359 L45.6399444,47.6130359 C46.1163666,48.3824765 47.0957646,49.7357504 49.4509377,49.7357504 C54.1624383,49.7357504 55.5385982,45.3041995 55.5385982,41.9871928 C55.5383417,38.0862241 53.4479332,35.0600406 49.7689373,35.0600406 C48.1539249,35.0867948 46.7781497,35.7505049 45.7724549,37.209638 L45.7189633,37.209638 L45.7189633,30.2824859 L43.3898305,30.2824859 L43.3898305,30.2933999 Z M40,80 C62.09139,80 80,62.09139 80,40 C80,17.90861 62.09139,0 40,0 C17.90861,0 0,17.90861 0,40 C0,62.09139 17.90861,80 40,80 Z M49.3979591,47.7194096 C47.9164834,47.7194096 45.6136475,46.7368357 45.6136475,43.0486144 C45.6136475,40.7926433 45.9834713,37.1569014 49.3452371,37.1569014 C52.9447009,37.1569014 53.1299335,40.5807963 53.1299335,42.3587932 C53.1299335,45.4095442 51.9388778,47.7194096 49.3979591,47.7194096 L49.3979591,47.7194096 Z M63.247188,37.1253666 C65.2057274,37.1253666 66.2391301,38.2397821 66.5296784,40.0973985 L68.7788944,40.0973985 C68.5937901,37.6829602 67.2176301,35.0282486 63.5913563,35.0282486 C59.0128794,35.0282486 56.9491525,38.4521435 56.9491525,42.7509524 C56.9491525,46.7589379 59.2516036,49.7042156 63.1418723,49.7042156 C67.191205,49.7042156 68.5417094,46.5994417 68.7788944,44.3968504 L66.5296784,44.3968504 C66.132275,46.519565 64.7831816,47.6878748 63.2220457,47.6878748 C60.0197287,47.6878748 59.4368362,44.7416967 59.4368362,42.3533695 C59.4370927,39.8847797 60.3635121,37.1253666 63.247188,37.1253666 L63.247188,37.1253666 Z" id="Oval-1" daslicht:type="MSShapeGroup"></path>
        </g>
    </g>
</svg>