<?xml version="1.0" encoding="UTF-8" standalone="no"?>
<svg width="80px" height="80px" viewBox="0 0 80 80" version="1.1" xmlns="http://www.w3.org/2000/svg" xmlns:xlink="http://www.w3.org/1999/xlink" xmlns:daslicht="http://www.marcwensauer.de/daslicht/ns">
    <title>Facebook</title>
    <desc>Created by Marc Wensauer</desc>
    <defs></defs>
    <g stroke="none" stroke-width="1" fill="none" fill-rule="evenodd" daslicht:type="MSPage">
        <g daslicht:type="MSLayerGroup" fill="#010002">
            <path d="M40,0 C17.91,0 0,17.91 0,40 C0,62.09 17.91,80 40,80 C62.09,80 80,62.09 80,40 C80,17.905 62.09,0 40,0 L40,0 Z M50.34,39.995 L43.785,40 L43.78,64 L34.785,64 L34.785,40 L28.785,40 L28.785,31.73 L34.785,31.725 L34.775,26.855 C34.775,20.105 36.605,16 44.55,16 L51.17,16 L51.17,24.275 L47.03,24.275 C43.935,24.275 43.785,25.43 43.785,27.585 L43.775,31.725 L51.215,31.725 L50.34,39.995 L50.34,39.995 Z" id="Shape" daslicht:type="MSShapeGroup"></path>
        </g>
    </g>
</svg>