<?xml version="1.0" encoding="UTF-8" standalone="no"?>
<svg width="179px" height="80px" viewBox="0 0 179 80" version="1.1" xmlns="http://www.w3.org/2000/svg" xmlns:xlink="http://www.w3.org/1999/xlink" xmlns:sketch="http://www.bohemiancoding.com/sketch/ns">
    <!-- Generator: Sketch 3.0.3 (7892) - http://www.bohemiancoding.com/sketch -->
    <title>github10</title>
    <desc>Created with Sketch.</desc>
    <defs></defs>
    <g id="Page-1" stroke="none" stroke-width="1" fill="none" fill-rule="evenodd" sketch:type="MSPage">
        <g id="github10" sketch:type="MSLayerGroup" transform="translate(99.000000, 0.000000)" fill="#000000">
            <path d="M74.5570843,20.4809346 C70.9838724,14.2013084 66.1370387,9.22971963 60.0153075,5.56504673 C53.8926651,1.90018692 47.2085649,0.0682242991 39.9582688,0.0682242991 C32.7088838,0.0682242991 26.0225968,1.90074766 19.9012301,5.56504673 C13.7789522,9.22953271 8.93230068,14.2013084 5.35908884,20.4809346 C1.78642369,26.7603738 0,33.6175701 0,41.0523364 C0,49.9831776 2.54031891,58.0140187 7.62223235,65.1469159 C12.7035991,72.2803738 19.2679727,77.2164486 27.3148064,79.9557009 C28.2514806,80.1340187 28.9448747,80.0085981 29.3957175,79.5826168 C29.8467426,79.1560748 30.0719818,78.6218692 30.0719818,77.982243 C30.0719818,77.875514 30.0630524,76.9153271 30.0457403,75.1005607 C30.0278815,73.2857944 30.0194989,71.7026168 30.0194989,70.3517757 L28.822779,70.5641121 C28.0597722,70.7074766 27.097221,70.7682243 25.9351253,70.751028 C24.7735763,70.7343925 23.5677449,70.6095327 22.3192711,70.3773832 C21.0702506,70.1472897 19.9085194,69.6136449 18.8331663,68.7775701 C17.7583599,67.9414953 16.9953531,66.8471028 16.544328,65.4960748 L16.0240547,64.2680374 C15.6772665,63.4504673 15.1312984,62.542243 14.3854214,61.546729 C13.6395444,60.5502804 12.8852847,59.8747664 12.1222779,59.5190654 L11.7579954,59.2515888 C11.515262,59.0738318 11.2900228,58.8594393 11.0817312,58.6106542 C10.8736219,58.3618692 10.7178132,58.1128972 10.6137585,57.8635514 C10.5095216,57.6140187 10.5958998,57.4093458 10.8738041,57.248785 C11.1517084,57.0882243 11.6539408,57.0102804 12.3826879,57.0102804 L13.4228702,57.1697196 C14.1166287,57.3123364 14.9747608,57.7383178 15.9983599,58.4502804 C17.0214123,59.1616822 17.8624146,60.0865421 18.521549,61.224486 C19.3197267,62.6835514 20.2813667,63.7953271 21.4092027,64.5603738 C22.5361276,65.3254206 23.6723462,65.7072897 24.8167654,65.7072897 C25.9611845,65.7072897 26.9496128,65.6183178 27.7824146,65.4413084 C28.6143052,65.2633645 29.3948064,64.9958879 30.1235535,64.6403738 C30.4357175,62.2557009 31.2856492,60.4237383 32.6726196,59.1431776 C30.6957631,58.9300935 28.918451,58.6091589 27.3397722,58.1824299 C25.7620046,57.7551402 24.1315718,57.0616822 22.4495672,56.1001869 C20.7666515,55.14 19.3705695,53.9476636 18.2609567,52.5252336 C17.1511617,51.1020561 16.2403645,49.2336449 15.5298405,46.9216822 C14.8189522,44.608785 14.4634169,41.9407477 14.4634169,38.9168224 C14.4634169,34.611215 15.8338041,30.9472897 18.5740319,27.9229907 C17.2903872,24.6859813 17.4115718,21.0571963 18.9379499,17.0370093 C19.9438724,16.7164486 21.4356264,16.9570093 23.4124829,17.7571963 C25.3897039,18.557757 26.8373576,19.2435514 27.7569021,19.8121495 C28.6764465,20.3805607 29.4132118,20.862243 29.9682916,21.2528972 C33.1947153,20.3282243 36.5242825,19.8657944 39.9579043,19.8657944 C43.3915262,19.8657944 46.7218223,20.3282243 49.9484282,21.2528972 L51.925467,19.9727103 C53.2774487,19.1185047 54.8739863,18.3357009 56.7112528,17.6241121 C58.5496128,16.9128972 59.9553531,16.7170093 60.9270159,17.0375701 C62.4872893,21.0579439 62.6263326,24.6865421 61.3423235,27.9235514 C64.082369,30.9478505 65.453303,34.6127103 65.453303,38.9173832 C65.453303,41.9413084 65.096492,44.617757 64.386697,46.9484112 C63.6759909,49.2794393 62.7573576,51.1459813 61.6304328,52.5519626 C60.5022323,53.957757 59.097221,55.1407477 57.4152164,56.1007477 C55.7328474,57.0614953 54.1018679,57.7549533 52.5241002,58.182243 C50.9456036,58.6095327 49.1682916,58.9306542 47.1914351,59.1441121 C48.9944419,60.744486 49.8961276,63.2706542 49.8961276,66.7214953 L49.8961276,77.9807477 C49.8961276,78.6203738 50.1129841,79.1543925 50.5470615,79.5811215 C50.9805923,80.0071028 51.6652392,80.1325234 52.6019134,79.9540187 C60.6498405,77.2151402 67.2142141,72.2788785 72.2953986,65.1454206 C77.3760364,58.0125234 79.9172665,49.9816822 79.9172665,41.0508411 C79.9154442,33.6170093 78.1281093,26.7603738 74.5570843,20.4809346 L74.5570843,20.4809346 Z" id="Shape" sketch:type="MSShapeGroup"></path>
        </g>
    </g>
</svg>