<?xml version="1.0" standalone="no"?>
<!DOCTYPE svg PUBLIC "-//W3C//DTD SVG 1.1//EN" "http://www.w3.org/Graphics/SVG/1.1/DTD/svg11.dtd">
<svg width="100%" height="100%" viewBox="0 0 80 80" version="1.1" xmlns="http://www.w3.org/2000/svg" xmlns:xlink="http://www.w3.org/1999/xlink" xml:space="preserve" style="fill-rule:evenodd;clip-rule:evenodd;stroke-linejoin:round;stroke-miterlimit:1.41421;">

    <path id="Shape" 
 d="M74.6343,20.4127C71.0574,14.1331 66.2055,9.1615 60.0774,5.49682C53.9485,1.83196 47.2574,-1.52656e-16 39.9996,-1.52656e-16C32.7427,-1.52656e-16 26.0495,1.83252 19.9218,5.49682C13.7932,9.16131 8.94155,14.1331 5.36464,20.4127C1.78827,26.6921 8.52409e-18,33.5493 1.04093e-17,40.9841C1.26738e-17,49.915 2.54295,57.9458 7.63012,65.0787C12.7168,72.2121 19.2879,77.1482 27.3431,79.8875C28.2807,80.0658 28.9748,79.9404 29.4261,79.5144C29.8776,79.0879 30.1031,78.5536 30.1031,77.914C30.1031,77.8073 30.0942,76.8471 30.0768,75.0323C30.059,73.2176 30.0506,71.6344 30.0506,70.2836L28.8526,70.4959C28.0888,70.6393 27.1253,70.7 25.962,70.6828C24.7992,70.6662 23.5921,70.5413 22.3424,70.3092C21.0921,70.0791 19.9291,69.5454 18.8527,68.7093C17.7767,67.8733 17.0129,66.7789 16.5615,65.4279L16.0406,64.1998C15.6935,63.3822 15.147,62.474 14.4003,61.4785C13.6537,60.4821 12.8986,59.8065 12.1348,59.4508L11.7702,59.1834C11.5272,59.0056 11.3017,58.7912 11.0932,58.5424C10.8849,58.2936 10.7289,58.0447 10.6247,57.7953C10.5204,57.5458 10.6069,57.3411 10.8851,57.1806C11.1633,57.02 11.666,56.9421 12.3955,56.9421L13.4368,57.1015C14.1312,57.2441 14.9903,57.6701 16.0149,58.3821C17.039,59.0935 17.8809,60.0183 18.5407,61.1563C19.3397,62.6153 20.3024,63.7271 21.4314,64.4921C22.5595,65.2572 23.6969,65.6391 24.8425,65.6391C25.9881,65.6391 26.9775,65.5501 27.8112,65.3731C28.6439,65.1951 29.4252,64.9277 30.1547,64.5721C30.4672,62.1875 31.318,60.3555 32.7064,59.075C30.7275,58.8619 28.9484,58.5409 27.3681,58.1142C25.7887,57.6869 24.1566,56.9935 22.4728,56.032C20.7881,55.0718 19.3906,53.8794 18.2799,52.457C17.1689,51.0338 16.2572,49.1654 15.5459,46.8535C14.8343,44.5406 14.4784,41.8725 14.4784,38.8486C14.4784,34.543 15.8502,30.8791 18.5933,27.8548C17.3083,24.6178 17.4296,20.989 18.9576,16.9688C19.9645,16.6482 21.4578,16.8888 23.4367,17.689C25.416,18.4895 26.8651,19.1753 27.7856,19.7439C28.7061,20.3123 29.4437,20.794 29.9993,21.1847C33.2291,20.26 36.5621,19.7976 39.9993,19.7976C43.4364,19.7976 46.7702,20.26 50.0001,21.1847L51.9792,19.9045C53.3326,19.0503 54.9308,18.2675 56.77,17.5559C58.6102,16.8447 60.0174,16.6488 60.9901,16.9693C62.552,20.9897 62.6912,24.6183 61.4058,27.8553C64.1487,30.8796 65.5211,34.5445 65.5211,38.8492C65.5211,41.8731 65.1639,44.5495 64.4534,46.8802C63.7419,49.2112 62.8223,51.0778 61.6942,52.4837C60.5649,53.8895 59.1584,55.0725 57.4747,56.0325C55.7905,56.9933 54.1579,57.6867 52.5785,58.114C50.9983,58.5413 49.2192,58.8624 47.2403,59.0759C49.0452,60.6763 49.9478,63.2024 49.9478,66.6533L49.9478,77.9125C49.9478,78.5521 50.1649,79.0862 50.5994,79.5129C51.0334,79.9389 51.7187,80.0643 52.6564,79.8858C60.7126,77.1469 67.2838,72.2107 72.3702,65.0772C77.4561,57.9443 80,49.9135 80,40.9826C79.9982,33.5488 78.209,26.6921 74.6343,20.4127Z" style="fill:black;"/>




</svg>