<?xml version="1.0" encoding="UTF-8" standalone="no"?>
<svg width="636px" height="554px" viewBox="0 0 636 554" version="1.1" xmlns="http://www.w3.org/2000/svg" xmlns:xlink="http://www.w3.org/1999/xlink" xmlns:sketch="http://www.bohemiancoding.com/sketch/ns">
    <!-- Generator: Sketch 3.0.3 (7892) - http://www.bohemiancoding.com/sketch -->
    <title>Icon 2</title>
    <desc>Created with Sketch.</desc>
    <defs>
        <radialGradient cx="50%" cy="50%" fx="50%" fy="50%" r="56.126751%" id="radialGradient-1">
            <stop stop-color="#FFBD00" offset="0%"></stop>
            <stop stop-color="#FFFF00" offset="33.1612723%"></stop>
            <stop stop-color="#FFFFFF" offset="100%"></stop>
        </radialGradient>
        <linearGradient x1="50%" y1="0%" x2="50%" y2="100%" id="linearGradient-2">
            <stop stop-color="#39A4FF" offset="0%"></stop>
            <stop stop-color="#2232AF" offset="100%"></stop>
        </linearGradient>
        <path id="path-3" d="M261.641245,96.9455943 C224.658379,96.9455943 125.094235,203.894948 89.4898409,384.295855 C89.0311278,386.620069 44.2065199,372.612041 29.5229794,355.614638 C61.3989957,218.331093 113.181564,71.1641172 323.643182,24.8466517 C323.643182,89.0995452 323.643182,374.27727 323.643182,411.657496 C314.443721,411.657481 259.50333,411.815543 259.50333,411.815543 C259.50333,411.815543 255.175597,411.657474 250.924642,411.657474 C165.616506,407.61682 140.75137,313.169553 140.75137,313.169553 L179.285292,244.950021 C179.285292,244.950021 220.144822,358.690386 264.485712,358.690386 C264.485712,323.578487 261.641245,152.602838 261.641245,96.9455943 Z"></path>
        <linearGradient x1="50%" y1="30.0641741%" x2="50%" y2="100%" id="linearGradient-4">
            <stop stop-color="#FCFF8A" offset="0%"></stop>
            <stop stop-color="#CAA029" offset="79.5898438%"></stop>
            <stop stop-color="#D1A632" offset="100%"></stop>
        </linearGradient>
    </defs>
    <g id="Page-1" stroke="none" stroke-width="1" fill="none" fill-rule="evenodd" sketch:type="MSPage">
        <g id="Icon-2" sketch:type="MSLayerGroup" transform="translate(100.000000, 17.000000)">
            <polygon id="Star-5" stroke="#979797" fill="url(#radialGradient-1)" sketch:type="MSShapeGroup" points="218.12954 386.057327 204.997045 427.581882 197.16378 384.736057 178.939163 424.284474 176.528662 380.793083 153.499336 417.74166 156.549615 374.290588 129.078766 408.056625 137.54172 365.331121 106.062579 395.382107 119.804743 354.055978 84.8137562 379.917991 103.618407 340.642975 65.6674025 361.908154 89.2379793 325.303642 48.9254678 341.636624 76.8902491 308.27989 34.8519824 319.423094 66.7699468 289.840194 23.6688936 295.617885 59.0366757 270.275359 15.5525653 270.59642 53.8123942 249.893934 10.630997 244.7533 51.1794922 229.017346 8.98180461 218.496089 51.1794922 207.974832 10.630997 192.238878 53.8123942 187.098244 15.5525653 166.395759 59.0366757 166.716819 23.6688936 141.374293 66.7699468 147.151984 34.8519824 117.569084 76.8902491 128.712288 48.9254678 95.3555542 89.2379793 111.688536 65.6674025 75.0840241 103.618407 96.3492036 84.8137562 57.0741879 119.804743 82.9362002 106.062579 41.6100715 137.54172 71.6610571 129.078766 28.9355534 156.549615 62.7015903 153.499336 19.2505181 176.528662 56.1990957 178.939163 12.7077044 197.16378 52.2561217 204.997045 9.41029659 218.12954 50.9348513 231.262035 9.41029659 239.095301 52.2561217 257.319918 12.7077044 259.730419 56.1990957 282.759745 19.2505181 279.709466 62.7015903 307.180315 28.9355534 298.717361 71.6610571 330.196501 41.6100715 316.454338 82.9362002 351.445325 57.0741879 332.640674 96.3492036 370.591678 75.0840241 347.021102 111.688536 387.333613 95.3555542 359.368832 128.712288 401.407098 117.569084 369.489134 147.151984 412.590187 141.374293 377.222405 166.716819 420.706516 166.395759 382.446687 187.098244 425.628084 192.238878 385.079589 207.974832 427.277276 218.496089 385.079589 229.017346 425.628084 244.7533 382.446687 249.893934 420.706516 270.59642 377.222405 270.275359 412.590187 295.617885 369.489134 289.840194 401.407098 319.423094 359.368832 308.27989 387.333613 341.636624 347.021102 325.303642 370.591678 361.908154 332.640674 340.642975 351.445325 379.917991 316.454338 354.055978 330.196501 395.382107 298.717361 365.331121 307.180315 408.056625 279.709466 374.290588 282.759745 417.74166 259.730419 380.793083 257.319918 424.284474 239.095301 384.736057 231.262035 427.581882 "></polygon>
            <g id="A-13">
                <use fill="none" sketch:type="MSShapeGroup" xlink:href="#path-3"></use>
                <use fill="url(#linearGradient-2)" fill-rule="evenodd" xlink:href="#path-3"></use>
                <use fill="none" xlink:href="#path-3"></use>
            </g>
            <path d="M218.12954,436.992179 C338.599159,436.992179 436.259081,339.168147 436.259081,218.496089 C436.259081,97.8240313 338.599159,0 218.12954,0 C97.6599218,0 0,97.8240313 0,218.496089 C0,339.168147 97.6599218,436.992179 218.12954,436.992179 Z" id="Oval-3" stroke="url(#linearGradient-4)" stroke-width="34" sketch:type="MSShapeGroup"></path>
        </g>
    </g>
</svg>