<?xml version="1.0" encoding="UTF-8" standalone="no"?>
<svg width="968px" height="202px" viewBox="0 0 968 202" version="1.1" xmlns="http://www.w3.org/2000/svg" xmlns:xlink="http://www.w3.org/1999/xlink" xmlns:sketch="http://www.bohemiancoding.com/sketch/ns">
    <!-- Generator: Sketch 3.0.3 (7892) - http://www.bohemiancoding.com/sketch -->
    <title>Logo 1000 x</title>
    <desc>Created with Sketch.</desc>
    <defs>
        <linearGradient x1="50%" y1="30.0641741%" x2="50%" y2="100%" id="linearGradient-1">
            <stop stop-color="#FCFF8A" offset="0%"></stop>
            <stop stop-color="#CAA029" offset="79.5898438%"></stop>
            <stop stop-color="#D1A632" offset="100%"></stop>
        </linearGradient>
        <linearGradient x1="48.2387483%" y1="100%" x2="48.2387489%" y2="1%" id="linearGradient-2">
            <stop stop-color="#F5FF00" offset="0%"></stop>
            <stop stop-color="#CCA42E" offset="100%"></stop>
        </linearGradient>
        <filter x="-50%" y="-50%" width="200%" height="200%" filterUnits="objectBoundingBox" id="filter-3">
            <feOffset dx="0" dy="2" in="SourceAlpha" result="shadowOffsetOuter1"></feOffset>
            <feGaussianBlur stdDeviation="2" in="shadowOffsetOuter1" result="shadowBlurOuter1"></feGaussianBlur>
            <feColorMatrix values="0 0 0 0 0   0 0 0 0 0   0 0 0 0 0  0 0 0 0.35 0" in="shadowBlurOuter1" type="matrix" result="shadowMatrixOuter1"></feColorMatrix>
            <feMerge>
                <feMergeNode in="shadowMatrixOuter1"></feMergeNode>
                <feMergeNode in="SourceGraphic"></feMergeNode>
            </feMerge>
        </filter>
        <linearGradient x1="48.2387483%" y1="100%" x2="48.2387483%" y2="0%" id="linearGradient-4">
            <stop stop-color="#F5FF00" offset="0%"></stop>
            <stop stop-color="#CCA42E" offset="100%"></stop>
        </linearGradient>
        <filter x="-50%" y="-50%" width="200%" height="200%" filterUnits="objectBoundingBox" id="filter-5">
            <feOffset dx="0" dy="2" in="SourceAlpha" result="shadowOffsetOuter1"></feOffset>
            <feGaussianBlur stdDeviation="2" in="shadowOffsetOuter1" result="shadowBlurOuter1"></feGaussianBlur>
            <feColorMatrix values="0 0 0 0 0   0 0 0 0 0   0 0 0 0 0  0 0 0 0.35 0" in="shadowBlurOuter1" type="matrix" result="shadowMatrixOuter1"></feColorMatrix>
            <feMerge>
                <feMergeNode in="shadowMatrixOuter1"></feMergeNode>
                <feMergeNode in="SourceGraphic"></feMergeNode>
            </feMerge>
        </filter>
        <path d="M390.853742,101.003436 C327.101334,101.003436 325.259484,0.604810929 390.853743,0.604810997 C456.448003,0.604811064 454.60615,101.003436 390.853742,101.003436 Z M390.730939,78.5952644 C356.825674,78.595265 359.008781,24.7655775 390.730939,24.7655775 C422.453097,24.7655775 424.636204,78.5952638 390.730939,78.5952644 Z" id="path-6"></path>
        <linearGradient x1="45.8568335%" y1="95.9062878%" x2="45.8568335%" y2="0%" id="linearGradient-7">
            <stop stop-color="#F5FF00" offset="0%"></stop>
            <stop stop-color="#CCA42E" offset="100%"></stop>
        </linearGradient>
        <filter x="-50%" y="-50%" width="200%" height="200%" filterUnits="objectBoundingBox" id="filter-8">
            <feOffset dx="0" dy="2" in="SourceAlpha" result="shadowOffsetOuter1"></feOffset>
            <feGaussianBlur stdDeviation="2" in="shadowOffsetOuter1" result="shadowBlurOuter1"></feGaussianBlur>
            <feColorMatrix values="0 0 0 0 0   0 0 0 0 0   0 0 0 0 0  0 0 0 0.35 0" in="shadowBlurOuter1" type="matrix" result="shadowMatrixOuter1"></feColorMatrix>
            <feMerge>
                <feMergeNode in="shadowMatrixOuter1"></feMergeNode>
                <feMergeNode in="SourceGraphic"></feMergeNode>
            </feMerge>
        </filter>
        <path d="M50.2183976,100.954644 L15.8881658,100.954644 C15.8881658,100.954644 15.8881658,0.172822702 64.5699642,0.172822697 C113.251763,0.172822702 113.251763,100.954644 113.251763,100.954644 L79.0956203,100.954644 L79.0956203,75.9898331 L50.2183988,75.9898345 L50.2183976,100.954644 Z M50.2397296,55.7115108 L78.6663638,55.7115121 C78.6663638,55.7115121 80.2093457,22.8446038 64.4358675,22.8446038 C47.6539347,22.8446038 50.2397296,55.7115108 50.2397296,55.7115108 Z" id="path-9"></path>
        <filter x="-50%" y="-50%" width="200%" height="200%" filterUnits="objectBoundingBox" id="filter-10">
            <feOffset dx="0" dy="2" in="SourceAlpha" result="shadowOffsetOuter1"></feOffset>
            <feGaussianBlur stdDeviation="2" in="shadowOffsetOuter1" result="shadowBlurOuter1"></feGaussianBlur>
            <feColorMatrix values="0 0 0 0 0   0 0 0 0 0   0 0 0 0 0  0 0 0 0.35 0" in="shadowBlurOuter1" type="matrix" result="shadowMatrixOuter1"></feColorMatrix>
            <feMerge>
                <feMergeNode in="shadowMatrixOuter1"></feMergeNode>
                <feMergeNode in="SourceGraphic"></feMergeNode>
            </feMerge>
        </filter>
        <path d="M595.257372,100.895161 L560.783053,100.895161 C560.783053,100.895161 560.783053,0.496538172 609.669174,0.496538168 C658.555295,0.496538172 658.555295,100.895161 658.555295,100.895161 L624.255796,100.895161 L624.255796,76.0252725 L595.257374,76.0252739 L595.257372,100.895161 Z M595.278794,55.8240537 L623.824738,55.824055 C623.824738,55.824055 625.374196,23.0821152 609.534515,23.0821152 C592.682146,23.0821152 595.278794,55.8240537 595.278794,55.8240537 Z" id="path-11"></path>
        <filter x="-50%" y="-50%" width="200%" height="200%" filterUnits="objectBoundingBox" id="filter-12">
            <feOffset dx="0" dy="2" in="SourceAlpha" result="shadowOffsetOuter1"></feOffset>
            <feGaussianBlur stdDeviation="2" in="shadowOffsetOuter1" result="shadowBlurOuter1"></feGaussianBlur>
            <feColorMatrix values="0 0 0 0 0   0 0 0 0 0   0 0 0 0 0  0 0 0 0.35 0" in="shadowBlurOuter1" type="matrix" result="shadowMatrixOuter1"></feColorMatrix>
            <feMerge>
                <feMergeNode in="shadowMatrixOuter1"></feMergeNode>
                <feMergeNode in="SourceGraphic"></feMergeNode>
            </feMerge>
        </filter>
        <path id="path-13" d="M133.542273,101.003436 C135.739061,65.5874636 133.542273,0.604811012 182.909974,0.604810997 C232.277674,0.604811012 230.504843,81.3811167 232.277674,101.003438 L202.657054,101.003438 C202.657054,55.7108235 202.657054,21.5310204 182.909974,21.5310204 C163.162894,21.5310204 163.162894,55.7108235 163.162894,101.003438 L133.542273,101.003436 Z"></path>
        <filter x="-50%" y="-50%" width="200%" height="200%" filterUnits="objectBoundingBox" id="filter-14">
            <feOffset dx="0" dy="2" in="SourceAlpha" result="shadowOffsetOuter1"></feOffset>
            <feGaussianBlur stdDeviation="2" in="shadowOffsetOuter1" result="shadowBlurOuter1"></feGaussianBlur>
            <feColorMatrix values="0 0 0 0 0   0 0 0 0 0   0 0 0 0 0  0 0 0 0.35 0" in="shadowBlurOuter1" type="matrix" result="shadowMatrixOuter1"></feColorMatrix>
            <feMerge>
                <feMergeNode in="shadowMatrixOuter1"></feMergeNode>
                <feMergeNode in="SourceGraphic"></feMergeNode>
            </feMerge>
        </filter>
        <path id="path-15" d="M506.441907,80.3326378 C508.819605,80.3326382 512.269602,80.3326384 516.116061,80.3326385 C519.570712,80.3326386 523.34517,55.531762 526.949803,55.5317619 C535.559539,55.5317617 543.200415,55.7349745 543.200415,55.7349745 L543.200415,101.047691 C543.200415,101.047691 499.568887,101.047694 484.314717,101.047691 C469.060548,101.047688 457.761588,94.6216923 457.761588,65.9047199 C457.761588,37.1877475 457.761588,0.611644881 457.761588,0.611644881 L484.255986,0.611644881 L484.255986,54.7787718 C484.255986,72.5201458 484.255986,80.332636 506.441907,80.3326378 Z"></path>
        <filter x="-50%" y="-50%" width="200%" height="200%" filterUnits="objectBoundingBox" id="filter-16">
            <feOffset dx="0" dy="2" in="SourceAlpha" result="shadowOffsetOuter1"></feOffset>
            <feGaussianBlur stdDeviation="2" in="shadowOffsetOuter1" result="shadowBlurOuter1"></feGaussianBlur>
            <feColorMatrix values="0 0 0 0 0   0 0 0 0 0   0 0 0 0 0  0 0 0 0.35 0" in="shadowBlurOuter1" type="matrix" result="shadowMatrixOuter1"></feColorMatrix>
            <feMerge>
                <feMergeNode in="shadowMatrixOuter1"></feMergeNode>
                <feMergeNode in="SourceGraphic"></feMergeNode>
            </feMerge>
        </filter>
        <filter x="-50%" y="-50%" width="200%" height="200%" filterUnits="objectBoundingBox" id="filter-17">
            <feOffset dx="0" dy="2" in="SourceAlpha" result="shadowOffsetOuter1"></feOffset>
            <feGaussianBlur stdDeviation="2" in="shadowOffsetOuter1" result="shadowBlurOuter1"></feGaussianBlur>
            <feColorMatrix values="0 0 0 0 0   0 0 0 0 0   0 0 0 0 0  0 0 0 0.35 0" in="shadowBlurOuter1" type="matrix" result="shadowMatrixOuter1"></feColorMatrix>
            <feMerge>
                <feMergeNode in="shadowMatrixOuter1"></feMergeNode>
                <feMergeNode in="SourceGraphic"></feMergeNode>
            </feMerge>
        </filter>
        <radialGradient cx="50%" cy="50%" fx="50%" fy="50%" r="56.126751%" id="radialGradient-18">
            <stop stop-color="#FFBD00" offset="0%"></stop>
            <stop stop-color="#FFFF00" offset="33.1612723%"></stop>
            <stop stop-color="#FFFFFF" offset="100%"></stop>
        </radialGradient>
        <linearGradient x1="50%" y1="0%" x2="50%" y2="100%" id="linearGradient-19">
            <stop stop-color="#39A4FF" offset="0%"></stop>
            <stop stop-color="#2232AF" offset="100%"></stop>
        </linearGradient>
        <path id="path-20" d="M101.039267,51.3217403 C86.3954453,51.3217403 50.0304313,83.5759465 35.9324317,156.231689 C35.7507986,157.167757 17.5041174,150.068007 11.6899882,143.222371 C24.3116905,87.9319735 44.8156376,28.6610632 128.150514,10.0068895 C128.150514,35.884485 128.150514,150.738672 128.150514,165.793408 C124.507874,165.793402 102.753548,165.857061 102.753548,165.857061 C102.753548,165.857061 101.039928,165.793399 99.3567102,165.793399 C65.5779006,164.166042 53.1880348,126.579798 53.1880348,126.579798 L70.9902252,98.6526402 C70.9902252,98.6526402 81.799387,140.825583 99.3567102,140.825583 C99.3567102,126.684406 101.039267,73.7374724 101.039267,51.3217403 Z"></path>
        <filter x="-50%" y="-50%" width="200%" height="200%" filterUnits="objectBoundingBox" id="filter-21">
            <feOffset dx="0" dy="1" in="SourceAlpha" result="shadowOffsetOuter1"></feOffset>
            <feGaussianBlur stdDeviation="2" in="shadowOffsetOuter1" result="shadowBlurOuter1"></feGaussianBlur>
            <feColorMatrix values="0 0 0 0 0   0 0 0 0 0   0 0 0 0 0  0 0 0 0.35 0" in="shadowBlurOuter1" type="matrix" result="shadowMatrixOuter1"></feColorMatrix>
            <feMerge>
                <feMergeNode in="shadowMatrixOuter1"></feMergeNode>
                <feMergeNode in="SourceGraphic"></feMergeNode>
            </feMerge>
        </filter>
    </defs>
    <g id="Page-1" stroke="none" stroke-width="1" fill="none" fill-rule="evenodd" sketch:type="MSPage">
        <g id="Logo-1000-x" sketch:type="MSLayerGroup" transform="translate(13.000000, 12.000000)">
            <g id="Logo-Typo-7-+-Star-5-+-Logo-Icon-7">
                <g id="Logo-Typo-7" transform="translate(188.971048, 26.813288)">
                    <g id="Authentic-Music-3" transform="translate(15.830035, 116.325315)" stroke="url(#linearGradient-2)" filter="url(#filter-3)" fill="url(#linearGradient-1)" sketch:type="MSShapeGroup">
                        <path d="M25.9945416,24.3940435 L29.8650348,24.3940435 L16.9633909,0.0667851152 L12.3403019,0.0667851152 L-0.0237734779,24.3940435 L3.84671968,24.3940435 L7.82472653,16.1124236 L21.58648,16.1124236 L25.9945416,24.3940435 Z M14.7056033,2.36364063 L20.9413978,14.8507706 L8.36229503,14.8507706 L14.7056033,2.36364063 Z M58.7862198,21.1266857 L58.7862198,0.0667851152 L55.2382677,0.0667851152 L55.2382677,21.8060373 C55.2382677,22.4314753 55.7399933,23.0083792 56.7434595,23.5367665 C57.7469257,24.0651537 59.5029652,24.3509099 62.0116307,24.3940435 L72.4404595,24.3940435 C74.5907442,24.3509099 76.2034336,24.0867202 77.2785759,23.6014666 C78.3537183,23.116213 78.8912814,22.5824421 78.8912814,22.0001378 L78.8912814,0.0667851152 L75.3433294,0.0667851152 L75.3433294,21.1266857 C75.3433294,21.838391 75.0387103,22.3721619 74.4294629,22.7280145 C73.8202156,23.0838672 72.5121453,23.2617908 70.5052129,23.2617908 L65.129528,23.2617908 C62.6208625,23.2617908 60.936498,23.0784755 60.0763841,22.7118395 C59.2162702,22.3452034 58.7862198,21.8168241 58.7862198,21.1266857 L58.7862198,21.1266857 Z M104.264514,0.0667851152 L104.264514,1.19903783 L114.370802,1.19903783 L114.370802,24.3940435 L118.026268,24.3940435 L118.026268,1.19903783 L128.132555,1.19903783 L128.132555,0.0667851152 L104.264514,0.0667851152 Z M157.05374,12.3921647 L173.503336,12.3921647 L173.503336,24.3940435 L177.051288,24.3940435 L177.051288,0.0667851152 L173.503336,0.0667851152 L173.503336,11.259912 L157.05374,11.259912 L157.05374,0.0667851152 L153.505788,0.0667851152 L153.505788,24.3940435 L157.05374,24.3940435 L157.05374,12.3921647 Z M202.424521,24.3940435 L226.185049,24.3940435 L226.185049,23.2617908 L205.972473,23.2617908 L205.972473,12.4245148 L223.927261,12.4245148 L223.927261,11.2922621 L205.972473,11.2922621 L205.972473,1.19903783 L226.185049,1.19903783 L226.185049,0.0667851152 L202.424521,0.0667851152 L202.424521,24.3940435 Z M255.106234,24.3940435 L255.106234,4.27229521 L271.340802,24.3940435 L275.211295,24.3940435 L275.211295,0.0667851152 L271.663343,0.0667851152 L271.663343,20.2855837 L255.536289,0.0667851152 L251.558282,0.0667851152 L251.558282,24.3940435 L255.106234,24.3940435 Z M300.584528,0.0667851152 L300.584528,1.19903783 L310.690816,1.19903783 L310.690816,24.3940435 L314.346282,24.3940435 L314.346282,1.19903783 L324.452569,1.19903783 L324.452569,0.0667851152 L300.584528,0.0667851152 Z M349.825802,24.3940435 L353.696296,24.3940435 L353.696296,0.0667851152 L349.825802,0.0667851152 L349.825802,24.3940435 Z M382.61748,21.1266857 L382.61748,3.30179288 C382.61748,2.65478809 383.047531,2.14258365 383.907645,1.76516419 C384.767759,1.38774473 385.807047,1.19903783 387.025542,1.19903783 L394.336474,1.19903783 C396.343406,1.19903783 397.651476,1.37156986 398.260724,1.71663908 C398.869971,2.0617083 399.17459,2.59008762 399.17459,3.30179288 L399.17459,7.7661036 L402.722542,7.7661036 L402.722542,2.39599071 C402.722542,1.83525322 402.059548,1.31765716 400.733539,0.843186979 C399.40753,0.368716801 397.705247,0.109918768 395.626638,0.0667851152 L386.057919,0.0667851152 C383.835958,0.0667851152 382.115756,0.330974774 380.897261,0.859362018 C379.678767,1.38774926 379.069528,1.98621971 379.069528,2.65479133 L379.069528,21.8060373 C379.069528,22.4314753 379.571254,23.0083792 380.57472,23.5367665 C381.578186,24.0651537 383.334226,24.3509099 385.842891,24.3940435 L396.27172,24.3940435 C398.422005,24.3509099 400.034694,24.0867202 401.109837,23.6014666 C402.184979,23.116213 402.722542,22.5824421 402.722542,22.0001378 L402.722542,16.694725 L399.17459,16.694725 L399.17459,21.1266857 C399.17459,21.838391 398.869971,22.3721619 398.260724,22.7280145 C397.651476,23.0838672 396.343406,23.2617908 394.336474,23.2617908 L388.745761,23.2617908 C386.237096,23.2617908 384.588569,23.0784755 383.800131,22.7118395 C383.011693,22.3452034 382.61748,21.8168241 382.61748,21.1266857 L382.61748,21.1266857 Z M495.076809,24.3940435 L515.181871,3.17239257 L515.181871,24.3940435 L518.729823,24.3940435 L518.729823,0.0667851152 L514.85933,0.0667851152 L493.679131,22.097188 L471.85385,0.0667851152 L468.090871,0.0667851152 L468.090871,24.3940435 L471.746337,24.3940435 L471.746337,3.17239257 L492.066426,24.3940435 L495.076809,24.3940435 Z M547.651008,21.1266857 L547.651008,0.0667851152 L544.103056,0.0667851152 L544.103056,21.8060373 C544.103056,22.4314753 544.604782,23.0083792 545.608248,23.5367665 C546.611714,24.0651537 548.367754,24.3509099 550.876419,24.3940435 L561.305248,24.3940435 C563.455533,24.3509099 565.068222,24.0867202 566.143364,23.6014666 C567.218507,23.116213 567.75607,22.5824421 567.75607,22.0001378 L567.75607,0.0667851152 L564.208118,0.0667851152 L564.208118,21.1266857 C564.208118,21.838391 563.903499,22.3721619 563.294251,22.7280145 C562.685004,23.0838672 561.376934,23.2617908 559.370001,23.2617908 L553.994316,23.2617908 C551.485651,23.2617908 549.801286,23.0784755 548.941172,22.7118395 C548.081059,22.3452034 547.651008,21.8168241 547.651008,21.1266857 L547.651008,21.1266857 Z M596.784768,3.30179288 L596.784768,9.93355881 C596.784768,10.3648953 596.946037,10.7099594 597.26858,10.9687613 C597.591123,11.2275632 598.755843,11.3569622 600.762775,11.3569622 L611.08409,11.3569622 C611.514147,11.3569622 612.069629,11.4000952 612.750553,11.4863625 C613.431476,11.5726298 614.058633,11.6912456 614.632042,11.8422134 C615.205452,11.9931812 615.707177,12.1711048 616.137234,12.3759897 C616.567291,12.5808745 616.782316,12.8127144 616.782316,13.0715163 L616.782316,21.8060373 C616.782316,22.4746089 616.244753,23.0622961 615.169611,23.5691165 C614.094469,24.075937 612.302592,24.3509099 609.793926,24.3940435 L600.225207,24.3940435 C598.146598,24.3509099 596.444315,24.0921118 595.118306,23.6176417 C593.792297,23.1431715 593.129303,22.6255754 593.129303,22.0648379 L593.129303,16.694725 L596.677255,16.694725 L596.677255,21.1590358 C596.677255,21.870741 596.981874,22.3991203 597.591121,22.7441896 C598.200369,23.0892588 599.508439,23.2617908 601.515371,23.2617908 L608.826303,23.2617908 C610.474854,23.2617908 611.621656,23.0730839 612.266741,22.6956645 C612.911826,22.318245 613.234364,21.8060405 613.234364,21.1590358 L613.234364,13.8479182 C613.234364,13.3950149 612.911826,13.0553424 612.266741,12.8288908 C611.621656,12.6024391 610.259829,12.4892149 608.181221,12.4892149 L599.365097,12.4892149 C598.074926,12.4892149 596.731019,12.3490327 595.333334,12.0686639 C593.935648,11.7882952 593.236816,11.3353986 593.236816,10.7099607 L593.236816,2.65479133 C593.236816,1.98621971 593.77438,1.39853251 594.849522,0.891712096 C595.924664,0.384891678 597.716541,0.109918768 600.225207,0.0667851152 L609.793926,0.0667851152 C611.872535,0.109918768 613.574818,0.368716801 614.900827,0.843186979 C616.226836,1.31765716 616.88983,1.83525322 616.88983,2.39599071 L616.88983,7.7661036 L613.341878,7.7661036 L613.341878,3.33414296 C613.341878,2.62243769 613.037259,2.08866675 612.428012,1.73281412 C611.818764,1.37696148 610.510694,1.19903783 608.503762,1.19903783 L601.19283,1.19903783 C599.400926,1.19903783 598.218287,1.38774473 597.644878,1.76516419 C597.071469,2.14258365 596.784768,2.65478809 596.784768,3.30179288 L596.784768,3.30179288 Z M642.263063,24.3940435 L646.133556,24.3940435 L646.133556,0.0667851152 L642.263063,0.0667851152 L642.263063,24.3940435 Z M675.054741,21.1266857 L675.054741,3.30179288 C675.054741,2.65478809 675.484792,2.14258365 676.344906,1.76516419 C677.205019,1.38774473 678.244308,1.19903783 679.462803,1.19903783 L686.773734,1.19903783 C688.780667,1.19903783 690.088737,1.37156986 690.697984,1.71663908 C691.307232,2.0617083 691.611851,2.59008762 691.611851,3.30179288 L691.611851,7.7661036 L695.159803,7.7661036 L695.159803,2.39599071 C695.159803,1.83525322 694.496808,1.31765716 693.170799,0.843186979 C691.84479,0.368716801 690.142507,0.109918768 688.063899,0.0667851152 L678.49518,0.0667851152 C676.273219,0.0667851152 674.553017,0.330974774 673.334522,0.859362018 C672.116027,1.38774926 671.506789,1.98621971 671.506789,2.65479133 L671.506789,21.8060373 C671.506789,22.4314753 672.008515,23.0083792 673.011981,23.5367665 C674.015447,24.0651537 675.771487,24.3509099 678.280152,24.3940435 L688.708981,24.3940435 C690.859266,24.3509099 692.471955,24.0867202 693.547097,23.6014666 C694.62224,23.116213 695.159803,22.5824421 695.159803,22.0001378 L695.159803,16.694725 L691.611851,16.694725 L691.611851,21.1266857 C691.611851,21.838391 691.307232,22.3721619 690.697984,22.7280145 C690.088737,23.0838672 688.780667,23.2617908 686.773734,23.2617908 L681.183022,23.2617908 C678.674356,23.2617908 677.02583,23.0784755 676.237392,22.7118395 C675.448954,22.3452034 675.054741,21.8168241 675.054741,21.1266857 L675.054741,21.1266857 Z"></path>
                    </g>
                    <g id="o-5" filter="url(#filter-5)">
                        <use stroke="url(#linearGradient-4)" stroke-width="3" fill="none" sketch:type="MSShapeGroup" xlink:href="#path-6"></use>
                        <use stroke="none" fill="url(#linearGradient-1)" fill-rule="evenodd" xlink:href="#path-6"></use>
                    </g>
                    <g id="A-11" filter="url(#filter-8)">
                        <use stroke="url(#linearGradient-7)" stroke-width="3" fill="none" sketch:type="MSShapeGroup" xlink:href="#path-9"></use>
                        <use stroke="none" fill="url(#linearGradient-1)" fill-rule="evenodd" xlink:href="#path-9"></use>
                        <use stroke="none" fill="none" xlink:href="#path-9"></use>
                    </g>
                    <g id="A-12" filter="url(#filter-10)">
                        <use stroke="url(#linearGradient-7)" stroke-width="3" fill="none" sketch:type="MSShapeGroup" xlink:href="#path-11"></use>
                        <use stroke="none" fill="url(#linearGradient-1)" fill-rule="evenodd" xlink:href="#path-11"></use>
                        <use stroke="none" fill="none" xlink:href="#path-11"></use>
                    </g>
                    <g id="n-4" filter="url(#filter-12)">
                        <use stroke="url(#linearGradient-4)" stroke-width="3" fill="none" sketch:type="MSShapeGroup" xlink:href="#path-13"></use>
                        <use stroke="none" fill="url(#linearGradient-1)" fill-rule="evenodd" xlink:href="#path-13"></use>
                        <use stroke="none" fill="none" xlink:href="#path-13"></use>
                    </g>
                    <g id="l-5" filter="url(#filter-14)">
                        <use stroke="url(#linearGradient-4)" stroke-width="3" fill="none" sketch:type="MSShapeGroup" xlink:href="#path-15"></use>
                        <use stroke="none" fill="url(#linearGradient-1)" fill-rule="evenodd" xlink:href="#path-15"></use>
                    </g>
                    <path d="M271.932957,66.4617754 C272.532302,71.097619 273.624702,73.607933 275.465545,76.0362321 C278.462266,79.9656614 282.743232,81.9303466 288.308571,81.9303466 C292.46117,81.9303466 295.661192,80.9259289 297.908733,78.9170634 C300.156273,76.9081978 301.280027,74.5792732 301.280027,71.9302197 C301.280026,62.7435632 290.962835,61.3119922 283.171361,59.5459565 C270.413891,56.5878468 261.316839,52.6584764 255.879931,47.7577274 C250.400212,42.8569785 247.660394,36.609721 247.660394,29.0157677 C247.660394,24.0267169 249.062411,19.3136799 251.866485,14.8765153 C254.67056,10.4393507 258.887311,6.95148262 264.516866,4.41280635 C270.14642,1.87413009 277.862861,0.604810997 287.66642,0.604810997 C299.696114,0.604810997 308.868083,2.91166048 315.182602,7.52542865 C321.497122,12.1391968 324.12695,22.8693099 325.325638,32.9357132 L299.032497,32.935714 C298.304722,28.5647757 296.774277,26.419353 294.441116,24.4325629 C292.107954,22.4457728 288.886528,22.2072695 284.776739,22.2072695 C281.394725,22.2072695 278.84755,22.9467858 277.135138,24.4258407 C275.422726,25.9048956 273.242713,29.0157675 276.685633,33.9954986 C279.660516,36.3120602 281.309096,36.4679306 286.446332,37.5717029 C299.160991,40.39736 329.534684,49.1449672 329.534684,67.7579813 C329.534684,81.9303475 329.534684,101.003436 287.859065,101.003436 C246.183446,101.003436 244.941958,76.2632695 244.128562,66.4617715 L271.932957,66.4617754 Z" id="Path" stroke="url(#linearGradient-2)" stroke-width="3" fill="url(#linearGradient-1)" filter="url(#filter-16)" sketch:type="MSShapeGroup"></path>
                    <path d="M703.520333,66.4617754 C704.119677,71.097619 705.212078,73.607933 707.052921,76.0362321 C710.049642,79.9656614 714.330607,81.9303466 719.895946,81.9303466 C724.048546,81.9303466 727.248567,80.9259289 729.496108,78.9170634 C731.743649,76.9081978 732.867402,74.5792732 732.867402,71.9302197 C732.867401,62.7435632 722.550211,61.3119922 714.758736,59.5459565 C702.001267,56.5878468 692.904214,52.6584764 687.467306,47.7577274 C681.987588,42.8569785 679.24777,36.609721 679.24777,29.0157677 C679.24777,24.0267169 680.649786,19.3136799 683.453861,14.8765153 C686.257935,10.4393507 690.474687,6.95148262 696.104241,4.41280635 C701.733796,1.87413009 709.450236,0.604810997 719.253795,0.604810997 C731.283489,0.604810997 740.455459,2.91166048 746.769978,7.52542865 C753.084497,12.1391968 755.714325,22.8693099 756.913014,32.9357132 L730.619873,32.935714 C729.892098,28.5647757 728.361653,26.419353 726.028491,24.4325629 C723.69533,22.4457728 720.473903,22.2072695 716.364114,22.2072695 C712.982101,22.2072695 710.434926,22.9467858 708.722514,24.4258407 C707.010102,25.9048956 704.830088,29.0157675 708.273008,33.9954986 C711.247891,36.3120602 712.896472,36.4679306 718.033708,37.5717029 C730.748367,40.39736 761.122059,49.1449672 761.122059,67.7579813 C761.122059,81.9303475 761.122059,101.003436 719.446441,101.003436 C677.770822,101.003436 676.529333,76.2632695 675.715938,66.4617715 L703.520333,66.4617754 Z" id="Path-8" stroke="url(#linearGradient-2)" stroke-width="3" fill="url(#linearGradient-1)" filter="url(#filter-17)" sketch:type="MSShapeGroup"></path>
                </g>
                <g id="Icon">
                    <polygon id="Star-5" stroke="#979797" fill="url(#radialGradient-18)" sketch:type="MSShapeGroup" points="86.3710848 155.483043 81.1711113 172.206891 78.0694331 154.950906 70.8531709 170.878873 69.8987033 153.362889 60.7799573 168.243781 61.9877529 150.744036 51.110331 164.343172 54.4613421 147.135646 41.9967879 159.23856 47.4381671 142.594627 33.583054 153.010449 41.0289874 137.192594 26.0018188 145.75706 35.3348797 131.014739 19.3726431 137.592782 30.4456435 124.158491 13.8000728 128.646372 26.4383848 116.731978 9.37199066 119.05892 23.3763007 108.852319 6.15823027 108.981624 21.3076819 100.643781 4.20947451 98.5734116 20.2651519 92.2358192 3.55645643 87.998425 20.2651519 83.7610308 4.20947451 77.4234384 21.3076819 75.3530686 6.15823027 67.0152256 23.3763007 67.1445313 9.37199066 56.9379304 26.4383848 59.2648723 13.8000728 47.3504778 30.4456435 51.8383586 19.3726431 38.4040676 35.3348797 44.9821108 26.0018188 30.23979 41.0289874 38.8042559 33.583054 22.9864006 47.4381671 33.4022225 41.9967879 16.7582897 54.4613421 28.8612038 51.110331 11.6536782 61.9877529 25.2528144 60.7799573 7.75306906 69.8987033 22.6339607 70.8531709 5.11797708 78.0694331 21.0459438 81.1711113 3.78995927 86.3710848 20.5138074 91.5710583 3.78995927 94.6727365 21.0459438 101.888999 5.11797708 102.843466 22.6339607 111.962212 7.75306906 110.754417 25.2528144 121.631839 11.6536782 118.280827 28.8612038 130.745382 16.7582897 125.304002 33.4022225 139.159116 22.9864006 131.713182 38.8042559 146.740351 30.23979 137.40729 44.9821108 153.369527 38.4040676 142.296526 51.8383586 158.942097 47.3504778 146.303785 59.2648723 163.370179 56.9379304 149.365869 67.1445313 166.583939 67.0152256 151.434488 75.3530686 168.532695 77.4234384 152.477018 83.7610308 169.185713 87.998425 152.477018 92.2358192 168.532695 98.5734116 151.434488 100.643781 166.583939 108.981624 149.365869 108.852319 163.370179 119.05892 146.303785 116.731978 158.942097 128.646372 142.296526 124.158491 153.369527 137.592782 137.40729 131.014739 146.740351 145.75706 131.713182 137.192594 139.159116 153.010449 125.304002 142.594627 130.745382 159.23856 118.280827 147.135646 121.631839 164.343172 110.754417 150.744036 111.962212 168.243781 102.843466 153.362889 101.888999 170.878873 94.6727365 154.950906 91.5710583 172.206891 "></polygon>
                    <g id="A-13">
                        <use fill="none" sketch:type="MSShapeGroup" xlink:href="#path-20"></use>
                        <use fill="url(#linearGradient-19)" fill-rule="evenodd" xlink:href="#path-20"></use>
                        <use fill="none" xlink:href="#path-20"></use>
                    </g>
                    <ellipse id="Oval-3" stroke="url(#linearGradient-1)" stroke-width="18" filter="url(#filter-21)" sketch:type="MSShapeGroup" cx="86.3710848" cy="87.998425" rx="86.3710848" ry="87.998425"></ellipse>
                </g>
            </g>
        </g>
    </g>
</svg>