<?xml version="1.0" encoding="UTF-8" standalone="no"?>
<svg width="1889px" height="524px" viewBox="0 0 1889 524" version="1.1" xmlns="http://www.w3.org/2000/svg" xmlns:xlink="http://www.w3.org/1999/xlink" xmlns:sketch="http://www.bohemiancoding.com/sketch/ns">
    <!-- Generator: Sketch 3.0.3 (7892) - http://www.bohemiancoding.com/sketch -->
    <title>Group</title>
    <desc>Created with Sketch.</desc>
    <defs>
        <filter x="-50%" y="-50%" width="200%" height="200%" filterUnits="objectBoundingBox" id="filter-1">
            <feOffset dx="0" dy="7" in="SourceAlpha" result="shadowOffsetOuter1"></feOffset>
            <feGaussianBlur stdDeviation="2" in="shadowOffsetOuter1" result="shadowBlurOuter1"></feGaussianBlur>
            <feColorMatrix values="0 0 0 0 0   0 0 0 0 0   0 0 0 0 0  0 0 0 0.35 0" in="shadowBlurOuter1" type="matrix" result="shadowMatrixOuter1"></feColorMatrix>
            <feMerge>
                <feMergeNode in="shadowMatrixOuter1"></feMergeNode>
                <feMergeNode in="SourceGraphic"></feMergeNode>
            </feMerge>
        </filter>
        <filter x="-50%" y="-50%" width="200%" height="200%" filterUnits="objectBoundingBox" id="filter-2">
            <feOffset dx="0" dy="7" in="SourceAlpha" result="shadowOffsetOuter1"></feOffset>
            <feGaussianBlur stdDeviation="2" in="shadowOffsetOuter1" result="shadowBlurOuter1"></feGaussianBlur>
            <feColorMatrix values="0 0 0 0 0   0 0 0 0 0   0 0 0 0 0  0 0 0 0.35 0" in="shadowBlurOuter1" type="matrix" result="shadowMatrixOuter1"></feColorMatrix>
            <feMerge>
                <feMergeNode in="shadowMatrixOuter1"></feMergeNode>
                <feMergeNode in="SourceGraphic"></feMergeNode>
            </feMerge>
        </filter>
        <filter x="-50%" y="-50%" width="200%" height="200%" filterUnits="objectBoundingBox" id="filter-3">
            <feOffset dx="0" dy="7" in="SourceAlpha" result="shadowOffsetOuter1"></feOffset>
            <feGaussianBlur stdDeviation="3" in="shadowOffsetOuter1" result="shadowBlurOuter1"></feGaussianBlur>
            <feColorMatrix values="0 0 0 0 0   0 0 0 0 0   0 0 0 0 0  0 0 0 0.35 0" in="shadowBlurOuter1" type="matrix" result="shadowMatrixOuter1"></feColorMatrix>
            <feMerge>
                <feMergeNode in="shadowMatrixOuter1"></feMergeNode>
                <feMergeNode in="SourceGraphic"></feMergeNode>
            </feMerge>
        </filter>
        <filter x="-50%" y="-50%" width="200%" height="200%" filterUnits="objectBoundingBox" id="filter-4">
            <feOffset dx="0" dy="7" in="SourceAlpha" result="shadowOffsetOuter1"></feOffset>
            <feGaussianBlur stdDeviation="6" in="shadowOffsetOuter1" result="shadowBlurOuter1"></feGaussianBlur>
            <feColorMatrix values="0 0 0 0 0   0 0 0 0 0   0 0 0 0 0  0 0 0 0.35 0" in="shadowBlurOuter1" type="matrix" result="shadowMatrixOuter1"></feColorMatrix>
            <feMerge>
                <feMergeNode in="shadowMatrixOuter1"></feMergeNode>
                <feMergeNode in="SourceGraphic"></feMergeNode>
            </feMerge>
        </filter>
    </defs>
    <g id="Page-1" stroke="none" stroke-width="1" fill="none" fill-rule="evenodd" sketch:type="MSPage">
        <g id="Group" sketch:type="MSLayerGroup" transform="translate(12.000000, 100.000000)">
            <path d="M481.982562,368.652017 C539.256708,406.780954 598.653926,412.860768 615.2812,385.85204 C632.003035,359.41825 607.23915,313.19299 559.515488,279.888396 C511.387522,244.12525 450.600815,229.757988 424.218996,250.745505 C397.960803,272.481478 424.112143,327.019437 481.982562,368.652017 Z" id="Oval-1" stroke="#232374" stroke-width="20" filter="url(#filter-1)" sketch:type="MSShapeGroup"></path>
            <path d="M501.709197,341.785466 C526.738687,358.44827 552.695985,361.105222 559.962304,349.302082 C567.269947,337.750199 556.447831,317.549204 535.592017,302.994696 C514.559517,287.365772 487.994996,281.087106 476.465824,290.258903 C464.990678,299.757784 476.419128,323.591528 501.709197,341.785466 Z" id="Oval-4" fill="#232374" filter="url(#filter-2)" sketch:type="MSShapeGroup"></path>
            <path d="M704.480697,120.701519 C720.050367,131.066667 736.197184,132.719432 740.717219,125.377253 C745.262961,118.191369 738.531031,105.625279 725.557608,96.5716027 C712.474278,86.8495824 695.949736,82.9439192 688.777979,88.6492635 C681.63983,94.5580717 688.748932,109.383925 704.480697,120.701519 Z" id="Oval-5" fill="#232374" sketch:type="MSShapeGroup"></path>
            <path d="M690.565673,138.681724 C728.11149,163.676982 767.049077,167.662578 777.949014,149.957124 C788.91094,132.628568 772.677084,102.3258 741.392044,80.4931185 C709.841966,57.0487437 669.993505,47.6303482 652.699018,61.3886234 C635.485574,75.6375458 652.628971,111.389667 690.565673,138.681724 Z" id="Oval-3" stroke="#232374" stroke-width="15" sketch:type="MSShapeGroup"></path>
            <path d="M593.068349,297.312547 C598.89239,234.703454 608.264237,110.716242 608.264237,110.716242 C608.264237,110.716242 633.998211,110.394121 634.254433,112.533654 C644.007483,193.974605 647.975859,298.402866 647.975859,298.402866 L594.382459,303.09123 C594.382459,303.09123 592.894462,299.181852 593.068349,297.312547 Z" id="Triangle-1" fill="#232374" sketch:type="MSShapeGroup" transform="translate(620.950887, 206.968627) rotate(41.000000) translate(-620.950887, -206.968627) "></path>
            <path d="M833.526164,366.559521 L870.919507,245.377393 C872.304452,241.068673 875.228182,238.914346 879.690785,238.914346 C884.922801,238.914346 887.53877,241.299494 887.53877,246.069862 C887.53877,246.993159 887.231009,248.378084 886.615478,250.224678 L841.835796,388.718539 L824.754886,388.718539 L783.437551,266.151472 L742.351039,388.718539 L725.500953,388.718539 L680.490448,249.301386 C679.874916,247.454792 679.567155,246.069867 679.567155,245.14657 C679.567155,240.376202 682.183124,237.991054 687.415141,237.991054 C691.877743,237.991054 694.801473,240.145381 696.186419,244.4541 L734.041407,366.559521 L773.973804,245.608216 C775.820398,240.683965 778.974949,238.221877 783.437551,238.221877 C788.361802,238.221877 791.670233,240.760905 793.362945,245.839039 L833.526164,366.559521 Z M1023.7244,323.395601 L1023.7244,334.47511 L917.084127,334.47511 L917.084127,346.939558 C917.084127,358.019122 919.738566,364.982216 925.047524,367.829048 C930.356482,370.675881 941.628231,372.099276 958.863109,372.099276 L994.409866,372.099276 C998.564703,372.099276 1001.33455,371.252933 1002.7195,369.560222 C1004.10444,367.86751 1004.79691,364.71296 1004.79691,360.096475 C1004.79691,356.557169 1005.64325,354.018141 1007.33596,352.479312 C1009.02867,350.940484 1010.95218,350.171081 1013.10654,350.171081 C1018.64632,350.171081 1021.41617,353.710333 1021.41617,360.788944 C1021.41617,369.2525 1019.68501,376.023243 1016.22265,381.101377 C1012.76029,386.17951 1006.02801,388.718539 996.025628,388.718539 L958.863109,388.718539 C938.088926,388.718539 923.162514,385.91022 914.083427,380.293496 C905.004339,374.676772 900.464864,363.789725 900.464864,347.632027 L900.464864,323.395601 C900.464864,307.237903 905.004339,296.350856 914.083427,290.734132 C923.162514,285.117409 938.088926,282.309089 958.863109,282.309089 L965.556979,282.309089 C986.177279,282.309089 1001.02675,285.117409 1010.10584,290.734132 C1019.18492,296.350856 1023.7244,307.237903 1023.7244,323.395601 Z M965.556979,298.928353 L958.863109,298.928353 C942.243762,298.928353 931.241304,300.082457 925.855405,302.390699 C920.469506,304.698942 917.545776,309.853939 917.084127,317.855847 L1007.10514,317.855847 C1006.48961,309.700057 1003.412,304.506589 997.872213,302.275288 C992.332431,300.043986 981.560794,298.928353 965.556979,298.928353 Z M1112.12965,298.928353 C1096.58748,298.928353 1085.7389,302.275254 1079.58359,308.969157 C1073.42828,315.663061 1070.35067,324.626602 1070.35067,335.860049 L1070.35067,380.639731 C1070.35067,387.10281 1067.58082,390.334301 1062.04104,390.334301 C1056.50125,390.334301 1053.7314,387.10281 1053.7314,380.639731 L1053.7314,290.618721 C1053.7314,284.001759 1056.34737,280.693327 1061.57939,280.693327 C1067.42694,280.693327 1070.35067,284.23258 1070.35067,291.31119 L1070.35067,293.850244 C1079.8914,286.156102 1093.81759,282.309089 1112.12965,282.309089 L1118.82352,282.309089 C1139.44382,282.309089 1154.29329,285.117409 1163.37238,290.734132 C1172.45146,296.350856 1176.99094,307.237903 1176.99094,323.395601 L1176.99094,380.639731 C1176.99094,387.10281 1174.29803,390.334301 1168.91213,390.334301 C1163.21847,390.334301 1160.37168,387.10281 1160.37168,380.639731 L1160.37168,324.088071 C1160.37168,313.008506 1157.71724,306.045412 1152.40828,303.19858 C1147.09932,300.351747 1135.90451,298.928353 1118.82352,298.928353 L1112.12965,298.928353 Z M1232.38848,388.718539 C1222.3861,388.718539 1215.65383,386.17951 1212.19146,381.101377 C1208.7291,376.023243 1206.99794,369.2525 1206.99794,360.788944 C1206.99794,353.710333 1209.76779,350.171081 1215.30757,350.171081 C1220.84736,350.171081 1223.61721,353.479513 1223.61721,360.096475 C1223.61721,364.71296 1224.30967,367.86751 1225.69461,369.560222 C1227.07956,371.252933 1229.84941,372.099276 1234.00425,372.099276 L1295.86484,372.099276 C1303.4051,372.099276 1307.17517,367.48286 1307.17517,358.24989 C1307.17517,353.787287 1306.13648,350.055685 1304.05906,347.054969 C1301.98164,344.054254 1299.25026,342.553919 1295.86484,342.553919 L1239.08235,342.553919 C1228.00279,342.553919 1219.88559,339.707129 1214.73052,334.013464 C1209.57544,328.319799 1206.99794,320.856593 1206.99794,311.623623 C1206.99794,302.082887 1209.84473,294.812032 1215.5384,289.81084 C1221.23206,284.809648 1231.38818,282.309089 1246.00705,282.309089 L1297.94225,282.309089 C1307.94463,282.309089 1314.6769,284.886588 1318.13927,290.041663 C1321.60163,295.196738 1323.33279,302.005952 1323.33279,310.469508 C1323.33279,317.394235 1320.56294,320.856547 1315.02315,320.856547 C1312.8688,320.856547 1310.94529,320.087145 1309.25258,318.548316 C1307.55987,317.009488 1306.71352,314.470459 1306.71352,310.931154 C1306.71352,306.314669 1306.02106,303.160118 1304.63612,301.467407 C1303.25117,299.774695 1300.48132,298.928353 1296.32648,298.928353 L1234.92754,298.928353 C1227.38728,298.928353 1223.61721,303.160067 1223.61721,311.623623 C1223.61721,316.240108 1224.69437,319.77936 1226.84873,322.241486 C1229.00309,324.703611 1231.696,325.934655 1234.92754,325.934655 L1291.94084,325.934655 C1303.32817,325.934655 1311.48384,329.012266 1316.40809,335.16758 C1321.33234,341.322893 1323.79443,349.016919 1323.79443,358.24989 C1323.79443,368.098391 1320.90917,375.638537 1315.13857,380.870554 C1309.36796,386.10257 1299.32726,388.718539 1285.01615,388.718539 L1232.38848,388.718539 Z M1409.89145,318.317493 L1441.51421,318.317493 L1441.51421,308.622923 C1441.51421,304.775852 1440.82175,302.198353 1439.43681,300.890349 C1438.05186,299.582345 1435.28201,298.928353 1431.12718,298.928353 L1398.58112,298.928353 C1386.57826,298.928353 1378.49953,299.582345 1374.34469,300.890349 C1370.18986,302.198353 1368.11247,304.545031 1368.11247,307.930454 C1368.11247,314.855181 1365.26568,318.317493 1359.57201,318.317493 C1354.18611,318.317493 1351.4932,314.855181 1351.4932,307.930454 C1351.4932,298.235835 1355.37869,291.542032 1363.14977,287.848844 C1370.92085,284.155656 1382.1926,282.309089 1396.96536,282.309089 L1432.74294,282.309089 C1442.59144,282.309089 1449.28524,284.617297 1452.82455,289.233782 C1456.36385,293.850267 1458.13348,301.544294 1458.13348,312.316092 L1458.13348,380.639731 C1458.13348,387.10281 1455.36363,390.334301 1449.82385,390.334301 C1444.28406,390.334301 1441.51421,386.871989 1441.51421,379.947261 L1441.51421,377.177384 C1432.28124,384.871526 1418.432,388.718539 1399.96606,388.718539 L1378.49951,388.718539 C1370.65148,388.718539 1364.1885,386.02563 1359.11037,380.639731 C1354.03223,375.253831 1351.4932,368.021446 1351.4932,358.942359 C1351.4932,343.24631 1356.14809,332.551613 1365.458,326.857948 C1374.76791,321.164283 1389.57892,318.317493 1409.89145,318.317493 Z M1441.51421,334.936756 L1409.89145,334.936756 C1392.65657,334.936756 1381.38482,336.360151 1376.07587,339.206984 C1370.76691,342.053816 1368.11247,349.01691 1368.11247,360.096475 C1368.11247,363.328014 1369.26657,366.136334 1371.57481,368.521518 C1373.88306,370.906702 1376.19127,372.099276 1378.49951,372.099276 L1399.96606,372.099276 C1408.89126,372.099276 1416.35447,370.945172 1422.3559,368.636929 C1428.35733,366.328687 1432.62751,363.097196 1435.16658,358.942359 C1437.70565,354.787522 1439.39833,350.940509 1440.24469,347.401204 C1441.09104,343.861899 1441.51421,339.707124 1441.51421,334.936756 Z M1555.54083,372.099276 C1571.39076,372.099276 1582.31628,368.675434 1588.31771,361.827648 C1594.31914,354.979862 1597.31981,346.093261 1597.31981,335.16758 L1597.31981,290.387898 C1597.31981,283.924819 1600.08966,280.693327 1605.62944,280.693327 C1611.16922,280.693327 1613.93907,283.924819 1613.93907,290.387898 L1613.93907,380.408907 C1613.93907,387.02587 1611.3231,390.334301 1606.09109,390.334301 C1600.24354,390.334301 1597.31981,386.795049 1597.31981,379.716438 L1597.31981,377.177384 C1587.77907,384.871526 1573.85288,388.718539 1555.54083,388.718539 L1548.84696,388.718539 C1528.22666,388.718539 1513.37719,385.91022 1504.2981,380.293496 C1495.21901,374.676772 1490.67954,363.789725 1490.67954,347.632027 L1490.67954,290.387898 C1490.67954,283.924819 1493.37244,280.693327 1498.75834,280.693327 C1504.45201,280.693327 1507.2988,283.924819 1507.2988,290.387898 L1507.2988,346.939558 C1507.2988,358.019122 1509.95324,364.982216 1515.2622,367.829048 C1520.57115,370.675881 1531.76596,372.099276 1548.84696,372.099276 L1555.54083,372.099276 Z M1768.35973,323.395601 L1768.35973,334.47511 L1661.71945,334.47511 L1661.71945,346.939558 C1661.71945,358.019122 1664.37389,364.982216 1669.68285,367.829048 C1674.99181,370.675881 1686.26356,372.099276 1703.49844,372.099276 L1739.04519,372.099276 C1743.20003,372.099276 1745.96988,371.252933 1747.35482,369.560222 C1748.73977,367.86751 1749.43223,364.71296 1749.43223,360.096475 C1749.43223,356.557169 1750.27858,354.018141 1751.97129,352.479312 C1753.664,350.940484 1755.5875,350.171081 1757.74186,350.171081 C1763.28165,350.171081 1766.0515,353.710333 1766.0515,360.788944 C1766.0515,369.2525 1764.32034,376.023243 1760.85798,381.101377 C1757.39561,386.17951 1750.66334,388.718539 1740.66095,388.718539 L1703.49844,388.718539 C1682.72425,388.718539 1667.79784,385.91022 1658.71875,380.293496 C1649.63967,374.676772 1645.10019,363.789725 1645.10019,347.632027 L1645.10019,323.395601 C1645.10019,307.237903 1649.63967,296.350856 1658.71875,290.734132 C1667.79784,285.117409 1682.72425,282.309089 1703.49844,282.309089 L1710.19231,282.309089 C1730.81261,282.309089 1745.66208,285.117409 1754.74116,290.734132 C1763.82025,296.350856 1768.35973,307.237903 1768.35973,323.395601 Z M1710.19231,298.928353 L1703.49844,298.928353 C1686.87909,298.928353 1675.87663,300.082457 1670.49073,302.390699 C1665.10483,304.698942 1662.1811,309.853939 1661.71945,317.855847 L1751.74046,317.855847 C1751.12493,309.700057 1748.04732,304.506589 1742.50754,302.275288 C1736.96776,300.043986 1726.19612,298.928353 1710.19231,298.928353 Z M1849.84028,298.928353 C1838.45295,298.928353 1829.79717,302.082903 1823.87268,308.3921 C1817.94819,314.701296 1814.98599,323.857188 1814.98599,335.860049 L1814.98599,380.639731 C1814.98599,387.10281 1812.21614,390.334301 1806.67636,390.334301 C1801.13658,390.334301 1798.36673,387.10281 1798.36673,380.639731 L1798.36673,290.618721 C1798.36673,284.001759 1800.9827,280.693327 1806.21472,280.693327 C1812.06226,280.693327 1814.98599,284.23258 1814.98599,291.31119 L1814.98599,293.850244 C1824.21896,286.156102 1835.83694,282.309089 1849.84028,282.309089 L1860.45814,282.309089 C1867.38287,282.309089 1870.84518,285.078939 1870.84518,290.618721 C1870.84518,296.158503 1867.38287,298.928353 1860.45814,298.928353 L1849.84028,298.928353 Z" id="Wensauer" fill="#222274" filter="url(#filter-3)" sketch:type="MSShapeGroup"></path>
            <path d="M68.2109815,95.5350235 C65.5916919,95.5350235 63.2343666,94.4873234 61.138935,92.3918917 L18.4447282,31.6246772 L18.4447282,158.659587 C18.4447282,166.517456 15.3016279,170.446331 9.01533286,170.446331 C2.72903785,170.446331 -0.4140625,166.779381 -0.4140625,159.44537 L-0.4140625,11.4562483 C-0.4140625,3.94761813 2.55442117,0.193359375 8.49147756,0.193359375 C12.3331023,0.193359375 15.6508193,2.20145127 18.4447282,6.2176953 L68.2109815,75.8904499 L118.239162,6.2176953 C121.033071,2.20145127 124.26348,0.193359375 127.930485,0.193359375 C134.042161,0.193359375 137.097953,3.94761813 137.097953,11.4562483 L137.097953,159.44537 C137.097953,166.779381 133.867544,170.446331 127.40663,170.446331 C121.294954,170.446331 118.239162,166.517456 118.239162,158.659587 L118.239162,31.6246772 L75.5449556,92.3918917 C73.449524,94.4873234 71.0048904,95.5350235 68.2109815,95.5350235 Z M241.345157,88.7249047 L277.229245,88.7249047 L277.229245,77.7239434 C277.229245,73.3584608 276.44347,70.4336313 274.871896,68.9493672 C273.300323,67.4651031 270.157222,66.7229822 265.442501,66.7229822 L228.510703,66.7229822 C214.890397,66.7229822 205.723021,67.4651031 201.008299,68.9493672 C196.293578,70.4336313 193.936253,73.0965357 193.936253,76.9381605 C193.936253,84.7960292 190.705844,88.7249047 184.24493,88.7249047 C178.133254,88.7249047 175.077462,84.7960292 175.077462,76.9381605 C175.077462,65.9371442 179.486534,58.3413184 188.304808,54.150455 C197.123083,49.9595917 209.913756,47.8641915 226.677209,47.8641915 L267.275995,47.8641915 C278.45163,47.8641915 286.047456,50.4834417 290.0637,55.7220209 C294.079944,60.9606001 296.088036,69.6914344 296.088036,81.9147858 L296.088036,159.44537 C296.088036,166.779381 292.944936,170.446331 286.658641,170.446331 C280.372346,170.446331 277.229245,166.517456 277.229245,158.659587 L277.229245,155.516455 C266.752087,164.24742 251.036585,168.612838 230.082268,168.612838 L205.722997,168.612838 C196.817412,168.612838 189.483512,165.557046 183.721075,159.44537 C177.958638,153.333694 175.077462,145.12671 175.077462,134.824171 C175.077462,117.013002 180.359617,104.877142 190.924085,98.4162277 C201.488553,91.9553134 218.295409,88.7249047 241.345157,88.7249047 Z M277.229245,107.583695 L241.345157,107.583695 C221.787795,107.583695 208.997123,109.1989 202.972757,112.429357 C196.948391,115.659814 193.936253,123.561219 193.936253,136.133809 C193.936253,139.800815 195.245878,142.987569 197.865168,145.694168 C200.484457,148.400768 203.103708,149.754047 205.722997,149.754047 L230.082268,149.754047 C240.210188,149.754047 248.679097,148.444422 255.48925,145.825132 C262.299403,143.205843 267.145016,139.538892 270.026235,134.824171 C272.907453,130.10945 274.828237,125.744032 275.788643,121.727788 C276.749049,117.711544 277.229245,112.996894 277.229245,107.583695 Z M392.477411,66.7229822 C379.555582,66.7229822 369.733393,70.3026242 363.01055,77.4620158 C356.287707,84.6214073 352.926336,95.0111001 352.926336,108.631406 L352.926336,159.44537 C352.926336,166.779381 349.783235,170.446331 343.49694,170.446331 C337.210645,170.446331 334.067545,166.779381 334.067545,159.44537 L334.067545,57.2935868 C334.067545,49.7849567 337.036029,46.0306979 342.973085,46.0306979 C349.608619,46.0306979 352.926336,50.0468817 352.926336,58.0793698 L352.926336,60.9605739 C363.403494,52.2296086 376.587054,47.8641915 392.477411,47.8641915 L404.526083,47.8641915 C412.383951,47.8641915 416.312827,51.0072918 416.312827,57.2935868 C416.312827,63.5798818 412.383951,66.7229822 404.526083,66.7229822 L392.477411,66.7229822 Z M538.633039,168.612838 L501.70124,168.612838 C478.127634,168.612838 461.189815,165.426083 450.887276,159.052478 C440.584737,152.678874 435.433545,140.324743 435.433545,121.989716 L435.433545,94.4873129 C435.433545,76.1522858 440.584737,63.7981553 450.887276,57.4245506 C461.189815,51.050946 478.127634,47.8641915 501.70124,47.8641915 L538.633039,47.8641915 C549.983294,47.8641915 557.622774,50.7890209 561.551708,56.6387677 C565.480642,62.4885144 567.44508,70.2153028 567.44508,79.8193646 C567.44508,87.6772334 564.30198,91.6061088 558.015685,91.6061088 C555.571014,91.6061088 553.388306,90.7330254 551.467493,88.9868323 C549.546681,87.2406393 548.586289,84.3594639 548.586289,80.3432199 C548.586289,75.1046407 547.800514,71.5249987 546.22894,69.6041863 C544.657367,67.6833739 541.514266,66.7229822 536.799545,66.7229822 L501.70124,66.7229822 C482.143878,66.7229822 469.353206,68.3381865 463.32884,71.5686437 C457.304474,74.7991008 454.292336,82.7005059 454.292336,95.2730959 L454.292336,121.203933 C454.292336,133.776523 457.304474,141.677928 463.32884,144.908385 C469.353206,148.138842 482.143878,149.754047 501.70124,149.754047 L536.799545,149.754047 C541.514266,149.754047 544.657367,148.793655 546.22894,146.872843 C547.800514,144.95203 548.586289,141.372388 548.586289,136.133809 C548.586289,132.117565 549.546681,129.23639 551.467493,127.490197 C553.388306,125.744004 555.571014,124.87092 558.015685,124.87092 C564.30198,124.87092 567.44508,128.887104 567.44508,136.919592 C567.44508,146.523654 565.480642,154.206788 561.551708,159.969225 C557.622774,165.731662 549.983294,168.612838 538.633039,168.612838 L538.633039,168.612838 Z" id="Marc-" fill="#222274" filter="url(#filter-4)" sketch:type="MSShapeGroup"></path>
        </g>
    </g>
</svg>