<?xml version="1.0" encoding="UTF-8" standalone="no"?>
<svg width="80px" height="80px" viewBox="0 0 80 80" version="1.1" xmlns="http://www.w3.org/2000/svg" xmlns:xlink="http://www.w3.org/1999/xlink" xmlns:daslicht="http://www.marcwensauer.de/daslicht/ns">
    <title>Soundcloud</title>
    <desc>Created by Marc Wensauer</desc>
    <defs></defs>
    <g id="Page-1" stroke="none" stroke-width="1" fill="none" fill-rule="evenodd" daslicht:type="MSPage">
        <g daslicht:type="MSLayerGroup" fill="#000000">
            <path d="M39.8979592,0 C17.8636735,0 0,17.8628571 0,39.8979592 C0,61.9330612 17.8636735,79.7959184 39.8979592,79.7959184 C61.9322449,79.7959184 79.7959184,61.9330612 79.7959184,39.8979592 C79.7959184,17.8628571 61.9322449,0 39.8979592,0 L39.8979592,0 Z M6.31755102,50.7518367 C6.2955102,50.9093878 6.18204082,51.0204082 6.04,51.0204082 C5.89714286,51.0204082 5.78285714,50.9093878 5.76326531,50.7502041 L5.25632653,46.9681633 L5.76326531,43.1208163 C5.78204082,42.9608163 5.89714286,42.8489796 6.04,42.8489796 C6.18204082,42.8489796 6.2955102,42.96 6.31755102,43.1183673 L6.91836735,46.9689796 L6.31755102,50.7518367 L6.31755102,50.7518367 Z M8.8922449,53.0538776 C8.8677551,53.2171429 8.74857143,53.3330612 8.60326531,53.3330612 C8.45632653,53.3330612 8.3355102,53.2155102 8.31510204,53.0530612 L7.63428571,46.9681633 L8.31510204,40.7461224 C8.33469388,40.5836735 8.45632653,40.4653061 8.60326531,40.4653061 C8.74938776,40.4653061 8.8677551,40.5804082 8.8922449,40.7461224 L9.66612245,46.9681633 L8.8922449,53.0538776 L8.8922449,53.0538776 Z M11.6718367,54.0832653 C11.6506122,54.28 11.5044898,54.4220408 11.3240816,54.4220408 C11.1412245,54.4220408 10.9959184,54.28 10.9771429,54.0816327 L10.3306122,46.9697959 C10.3306122,46.9697959 10.9771429,39.5877551 10.9771429,39.5869388 C10.995102,39.3902041 11.1412245,39.2473469 11.3240816,39.2473469 C11.5044898,39.2473469 11.6497959,39.3902041 11.6718367,39.5869388 L12.4057143,46.9697959 L11.6718367,54.0832653 L11.6718367,54.0832653 Z M14.475102,54.3093878 C14.4555102,54.5355102 14.2808163,54.7077551 14.0693878,54.7077551 C13.8538776,54.7077551 13.6783673,54.5355102 13.6612245,54.3093878 L13.0506122,46.9714286 L13.6612245,39.3861224 C13.6783673,39.157551 13.8538776,38.9861224 14.0693878,38.9861224 C14.2808163,38.9861224 14.4555102,39.157551 14.475102,39.3836735 L15.1689796,46.9706122 L14.475102,54.3093878 L14.475102,54.3093878 Z M17.3004082,54.3706122 C17.2832653,54.6302041 17.0816327,54.8293878 16.835102,54.8293878 C16.5861224,54.8293878 16.3853061,54.6310204 16.3689796,54.3706122 L15.7926531,46.9722449 L16.3689796,39.9363265 C16.3861224,39.6742857 16.5869388,39.4767347 16.835102,39.4767347 C17.082449,39.4767347 17.2832653,39.6742857 17.3004082,39.9338776 L17.9542857,46.9730612 L17.3004082,54.3706122 L17.3004082,54.3706122 Z M20.1485714,54.3730612 L20.1485714,54.3697959 C20.1314286,54.6595918 19.9020408,54.8889796 19.6236735,54.8889796 C19.3428571,54.8889796 19.1134694,54.6604082 19.0979592,54.3714286 L18.5583673,46.9738776 L19.0979592,35.5257143 C19.1134694,35.2342857 19.3428571,35.0065306 19.6236735,35.0065306 C19.9020408,35.0065306 20.1314286,35.2342857 20.1485714,35.524898 L20.7608163,46.9738776 L20.1485714,54.3730612 L20.1485714,54.3730612 Z M22.9755102,54.3673469 L22.9755102,54.3632653 C22.9608163,54.6881633 22.7036735,54.9412245 22.3910204,54.9412245 C22.077551,54.9412245 21.8212245,54.6881633 21.8089796,54.3657143 L21.3012245,47.0130612 C21.3012245,47.0130612 21.8065306,32.9485714 21.8065306,32.9477551 C21.8212245,32.6236735 22.077551,32.3697959 22.3910204,32.3697959 C22.7036735,32.3697959 22.9608163,32.6236735 22.9755102,32.9477551 L23.5477551,47.0130612 L22.9755102,54.3673469 L22.9755102,54.3673469 Z M25.9102041,54.2546939 L25.9102041,54.2506122 C25.8955102,54.6081633 25.6146939,54.8865306 25.2685714,54.8865306 C24.92,54.8865306 24.637551,54.6073469 24.6253061,54.2538776 L24.1542857,46.9771429 C24.1542857,46.9771429 24.6253061,31.7387755 24.6253061,31.7371429 C24.637551,31.3795918 24.92,31.0995918 25.2685714,31.0995918 C25.6146939,31.0995918 25.8963265,31.3795918 25.9102041,31.7371429 L26.442449,46.9771429 L25.9102041,54.2546939 L25.9102041,54.2546939 Z M28.8253061,54.2057143 C28.8138776,54.5959184 28.5044898,54.9020408 28.1240816,54.9020408 C27.7404082,54.9020408 27.4334694,54.5959184 27.4236735,54.2089796 L26.9861224,46.9779592 L27.4220408,31.2253061 C27.4342857,30.8342857 27.7412245,30.5273469 28.1240816,30.5273469 C28.5053061,30.5273469 28.8146939,30.8334694 28.8253061,31.2253061 L29.317551,46.9787755 L28.8253061,54.2057143 L28.8253061,54.2057143 Z M31.7616327,54.1428571 L31.7616327,54.1371429 C31.7502041,54.5608163 31.4163265,54.8955102 31.0008163,54.8955102 C30.5836735,54.8955102 30.2497959,54.5608163 30.2408163,54.1412245 L29.8383673,46.9795918 L30.2383673,31.6285714 C30.2497959,31.2040816 30.5836735,30.8718367 31.0008163,30.8718367 C31.4163265,30.8718367 31.7502041,31.2032653 31.7616327,31.6269388 L32.2146939,46.9795918 L31.7616327,54.1428571 L31.7616327,54.1428571 Z M34.7216327,54.0979592 L34.7216327,54.0930612 C34.7126531,54.5510204 34.3518367,54.9093878 33.9012245,54.9093878 C33.4514286,54.9093878 33.0897959,54.5510204 33.0808163,54.0979592 L32.7142857,46.9804082 L33.0808163,32.1893878 C33.0897959,31.7314286 33.4514286,31.3730612 33.9012245,31.3730612 C34.3518367,31.3730612 34.7126531,31.7322449 34.7216327,32.1893878 L35.1322449,46.9820408 L34.7216327,54.0979592 L34.7216327,54.0979592 Z M37.7404082,53.3502041 L37.7036735,54.0473469 C37.6995918,54.2881633 37.597551,54.5069388 37.4391837,54.6661224 C37.28,54.8236735 37.0628571,54.922449 36.8244898,54.922449 C36.5559184,54.922449 36.3142857,54.7983673 36.1518367,54.6040816 C36.0326531,54.4604082 35.9567347,54.2783673 35.9477551,54.0808163 C35.9461224,54.0710204 35.9453061,54.0620408 35.9453061,54.0506122 C35.9453061,54.0506122 35.6122449,46.9861224 35.6122449,46.9755102 L35.9420408,29.5453061 L35.9453061,29.3795918 C35.9493878,29.0718367 36.1102041,28.8016327 36.3510204,28.6457143 C36.4873469,28.5559184 36.6489796,28.5028571 36.8244898,28.5028571 C37.002449,28.5028571 37.1706122,28.5583673 37.3102041,28.6530612 C37.5428571,28.8106122 37.6987755,29.0767347 37.7036735,29.3787755 L38.0726531,46.9804082 L37.7404082,53.3502041 L37.7404082,53.3502041 Z M40.6734694,53.9526531 L40.6734694,53.9510204 L40.6734694,53.9444898 C40.6628571,54.4595918 40.244898,54.88 39.7346939,54.88 C39.2228571,54.88 38.8016327,54.4595918 38.795102,53.9510204 L38.6057143,50.515102 L38.4114286,46.9844898 L38.7942857,27.884898 L38.7959184,27.7885714 C38.7991837,27.4979592 38.9346939,27.2383673 39.1444898,27.0661224 C39.3053061,26.9322449 39.5118367,26.8522449 39.7363265,26.8522449 C39.9110204,26.8522449 40.0742857,26.9020408 40.2138776,26.9869388 C40.4832653,27.1510204 40.6702041,27.4481633 40.675102,27.7869388 L41.0906122,46.9853061 L40.6734694,53.9526531 L40.6734694,53.9526531 Z M66.0179592,54.8979592 C66.0179592,54.8979592 42.4187755,54.9004082 42.3959184,54.8979592 C41.8857143,54.8473469 41.4808163,54.4416327 41.4759184,53.92 L41.4759184,26.8734694 C41.4808163,26.3763265 41.6514286,26.1208163 42.2955102,25.8718367 C43.9485714,25.2310204 45.8236735,24.8530612 47.7453061,24.8530612 C55.6040816,24.8530612 62.0432653,30.877551 62.722449,38.5567347 C63.7363265,38.1322449 64.8497959,37.8955102 66.0179592,37.8955102 C70.7257143,37.8955102 74.5387755,41.7110204 74.5387755,46.4171429 C74.5395918,51.1232653 70.7257143,54.8979592 66.0179592,54.8979592 L66.0179592,54.8979592 Z" id="Shape" daslicht:type="MSShapeGroup"></path>
        </g>
    </g>
</svg>