<?xml version="1.0" encoding="UTF-8" standalone="no"?>
<svg width="80px" height="80px" viewBox="0 0 80 80" version="1.1" xmlns="http://www.w3.org/2000/svg" xmlns:xlink="http://www.w3.org/1999/xlink" xmlns:daslicht="http://www.marcwensauer.de/daslicht/ns">
    <title>Twitter</title>
    <desc>Created by Marc Wensauer</desc>
    <defs></defs>
    <g id="Page-1" stroke="none" stroke-width="1" fill="none" fill-rule="evenodd" daslicht:type="MSPage">
        <g daslicht:type="MSLayerGroup" fill="#010002">
            <path d="M40,0 C17.91,0 0,17.91 0,40 C0,62.09 17.91,80 40,80 C62.09,80 80,62.09 80,40 C80,17.905 62.09,0 40,0 L40,0 Z M59.9,31.02 L59.93,32.295 C59.93,45.315 50.025,60.315 31.91,60.315 C26.35,60.315 21.175,58.685 16.815,55.89 C17.585,55.98 18.37,56.03 19.165,56.03 C23.78,56.03 28.025,54.455 31.395,51.815 C27.085,51.735 23.45,48.885 22.195,44.975 C22.8,45.09 23.41,45.145 24.05,45.145 C24.95,45.145 25.82,45.03 26.645,44.805 C22.14,43.895 18.745,39.92 18.745,35.15 L18.745,35.025 C20.075,35.765 21.59,36.205 23.205,36.26 C20.565,34.495 18.825,31.48 18.825,28.065 C18.825,26.26 19.31,24.57 20.155,23.115 C25.01,29.075 32.27,32.995 40.455,33.405 C40.285,32.685 40.2,31.93 40.2,31.16 C40.2,25.725 44.61,21.315 50.05,21.315 C52.88,21.315 55.44,22.51 57.24,24.425 C59.48,23.98 61.59,23.16 63.495,22.035 C62.76,24.335 61.2,26.265 59.165,27.485 C61.15,27.25 63.055,26.715 64.82,25.935 C63.5,27.905 61.825,29.64 59.9,31.02 L59.9,31.02 Z" id="Shape" daslicht:type="MSShapeGroup"></path>
        </g>
    </g>
</svg>